<?xml version="1.0" standalone="no"?>
<!DOCTYPE svg PUBLIC "-//W3C//DTD SVG 20010904//EN"
 "http://www.w3.org/TR/2001/REC-SVG-20010904/DTD/svg10.dtd">
<svg version="1.0" xmlns="http://www.w3.org/2000/svg"
 width="1138.000000pt" height="1280.000000pt" viewBox="0 0 1138.000000 1280.000000"
 preserveAspectRatio="xMidYMid meet">
<metadata>
Created by potrace 1.15, written by Peter Selinger 2001-2017
</metadata>
<g transform="translate(0.000000,1280.000000) scale(0.100000,-0.100000)"
fill="#000000" stroke="none">
<path d="M2031 12784 c-103 -37 -190 -121 -246 -238 -63 -131 -68 -164 -73
-448 l-3 -257 -712 -3 -712 -3 -57 -23 c-80 -32 -150 -99 -190 -180 l-33 -67
0 -5525 0 -5525 27 -57 c35 -74 98 -141 163 -173 44 -22 55 -33 70 -70 25 -67
96 -139 173 -177 l67 -33 5300 0 5300 0 57 27 c80 37 149 105 184 181 l29 62
0 5525 0 5525 -27 57 c-32 69 -106 145 -169 176 -35 17 -50 32 -61 60 -24 60
-74 119 -130 156 -98 65 -108 66 -744 66 l-572 0 -5 258 c-3 227 -6 265 -25
327 -35 112 -81 194 -147 260 -83 84 -138 109 -240 110 -69 0 -88 -4 -138 -30
-110 -55 -207 -189 -253 -350 -13 -47 -18 -114 -21 -317 l-5 -258 -473 0 -473
0 -5 248 c-5 279 -13 326 -78 459 -46 97 -120 177 -199 219 -47 24 -67 29
-135 29 -67 0 -89 -4 -136 -27 -81 -40 -162 -129 -209 -230 -60 -131 -72 -200
-78 -465 l-5 -233 -468 0 -469 0 0 194 c0 222 -11 318 -48 431 -30 92 -105
210 -162 255 -70 55 -126 75 -215 74 -68 0 -88 -4 -134 -28 -114 -59 -208
-193 -253 -361 -18 -68 -22 -116 -26 -322 l-4 -243 -473 0 -473 0 -4 263 c-4
252 -5 265 -31 342 -50 151 -142 271 -247 323 -46 23 -68 27 -135 27 -72 0
-86 -3 -143 -34 -81 -44 -145 -116 -193 -216 -66 -137 -71 -171 -76 -452 l-5
-253 -473 0 -473 0 -4 258 -4 257 -35 100 c-55 159 -137 264 -247 315 -62 30
-162 36 -221 14z"/>
</g>
</svg>
